<?xml version="1.0" encoding="UTF-8" standalone="no"?><!DOCTYPE svg PUBLIC "-//W3C//DTD SVG 1.1//EN" "http://www.w3.org/Graphics/SVG/1.1/DTD/svg11.dtd"><!-- Generated by graphviz version 2.40.1 (20161225.0304)
 --><!-- Title: %0 Pages: 1 --><svg xmlns="http://www.w3.org/2000/svg" xmlns:xlink="http://www.w3.org/1999/xlink" width="1227pt" height="476pt" viewBox="0.00 0.00 1227.20 476.00">
<g id="graph0" class="graph" transform="scale(1 1) rotate(0) translate(4 472)">
<title>%0</title>
<polygon fill="#ffffff" stroke="transparent" points="-4,4 -4,-472 1223.2013,-472 1223.2013,4 -4,4"/>
<!-- [root] aws_default_vpc.default -->
<g id="node1" class="node">
<title>[root] aws_default_vpc.default</title>
<polygon fill="none" stroke="#000000" points="668.4951,-108 515.0499,-108 515.0499,-72 668.4951,-72 668.4951,-108"/>
<text text-anchor="middle" x="591.7725" y="-85.8" font-family="Times,serif" font-size="14.00" fill="#000000">aws_default_vpc.default</text>
</g>
<!-- [root] provider.aws -->
<g id="node9" class="node">
<title>[root] provider.aws</title>
<polygon fill="none" stroke="#000000" points="591.7725,-36 505.2342,-18 591.7725,0 678.3108,-18 591.7725,-36"/>
<text text-anchor="middle" x="591.7725" y="-13.8" font-family="Times,serif" font-size="14.00" fill="#000000">provider.aws</text>
</g>
<!-- [root] aws_default_vpc.default&#45;&gt;[root] provider.aws -->
<g id="edge1" class="edge">
<title>[root] aws_default_vpc.default-&gt;[root] provider.aws</title>
<path fill="none" stroke="#000000" d="M591.7725,-71.8314C591.7725,-64.131 591.7725,-54.9743 591.7725,-46.4166"/>
<polygon fill="#000000" stroke="#000000" points="595.2726,-46.4132 591.7725,-36.4133 588.2726,-46.4133 595.2726,-46.4132"/>
</g>
<!-- [root] aws_instance.http_server -->
<g id="node2" class="node">
<title>[root] aws_instance.http_server</title>
<polygon fill="none" stroke="#000000" points="820.3841,-252 663.1609,-252 663.1609,-216 820.3841,-216 820.3841,-252"/>
<text text-anchor="middle" x="741.7725" y="-229.8" font-family="Times,serif" font-size="14.00" fill="#000000">aws_instance.http_server</text>
</g>
<!-- [root] aws_security_group.http_server_sg -->
<g id="node3" class="node">
<title>[root] aws_security_group.http_server_sg</title>
<polygon fill="none" stroke="#000000" points="551.9356,-180 337.6094,-180 337.6094,-144 551.9356,-144 551.9356,-180"/>
<text text-anchor="middle" x="444.7725" y="-157.8" font-family="Times,serif" font-size="14.00" fill="#000000">aws_security_group.http_server_sg</text>
</g>
<!-- [root] aws_instance.http_server&#45;&gt;[root] aws_security_group.http_server_sg -->
<g id="edge2" class="edge">
<title>[root] aws_instance.http_server-&gt;[root] aws_security_group.http_server_sg</title>
<path fill="none" stroke="#000000" d="M667.2102,-215.9243C625.2049,-205.7412 572.603,-192.9892 529.0991,-182.4428"/>
<polygon fill="#000000" stroke="#000000" points="529.6509,-178.9753 519.1078,-180.0207 528.0017,-185.7782 529.6509,-178.9753"/>
</g>
<!-- [root] data.aws_ami.aws_linux_2_latest -->
<g id="node4" class="node">
<title>[root] data.aws_ami.aws_linux_2_latest</title>
<polygon fill="none" stroke="#000000" points="1184.9466,-108 980.5984,-108 980.5984,-72 1184.9466,-72 1184.9466,-108"/>
<text text-anchor="middle" x="1082.7725" y="-85.8" font-family="Times,serif" font-size="14.00" fill="#000000">data.aws_ami.aws_linux_2_latest</text>
</g>
<!-- [root] aws_instance.http_server&#45;&gt;[root] data.aws_ami.aws_linux_2_latest -->
<g id="edge3" class="edge">
<title>[root] aws_instance.http_server-&gt;[root] data.aws_ami.aws_linux_2_latest</title>
<path fill="none" stroke="#000000" d="M820.4844,-230.5791C947.5316,-224.2417 1186.2348,-208.6398 1211.7725,-180 1222.421,-168.058 1220.6367,-157.3201 1211.7725,-144 1202.6942,-130.3582 1189.4364,-120.1562 1174.8338,-112.5283"/>
<polygon fill="#000000" stroke="#000000" points="1176.1242,-109.2657 1165.5932,-108.1038 1173.1011,-115.5793 1176.1242,-109.2657"/>
</g>
<!-- [root] data.aws_subnet_ids.default_subnets -->
<g id="node6" class="node">
<title>[root] data.aws_subnet_ids.default_subnets</title>
<polygon fill="none" stroke="#000000" points="1203.1086,-180 980.4364,-180 980.4364,-144 1203.1086,-144 1203.1086,-180"/>
<text text-anchor="middle" x="1091.7725" y="-157.8" font-family="Times,serif" font-size="14.00" fill="#000000">data.aws_subnet_ids.default_subnets</text>
</g>
<!-- [root] aws_instance.http_server&#45;&gt;[root] data.aws_subnet_ids.default_subnets -->
<g id="edge4" class="edge">
<title>[root] aws_instance.http_server-&gt;[root] data.aws_subnet_ids.default_subnets</title>
<path fill="none" stroke="#000000" d="M820.7557,-217.752C872.0981,-207.1902 939.4104,-193.3431 994.1064,-182.0913"/>
<polygon fill="#000000" stroke="#000000" points="995.0762,-185.4652 1004.1658,-180.022 993.6656,-178.6088 995.0762,-185.4652"/>
</g>
<!-- [root] var.aws_key_pair -->
<g id="node10" class="node">
<title>[root] var.aws_key_pair</title>
<polygon fill="none" stroke="#000000" points="679.394,-180 570.151,-180 570.151,-144 685.394,-144 685.394,-174 679.394,-180"/>
<polyline fill="none" stroke="#000000" points="679.394,-180 679.394,-174 "/>
<polyline fill="none" stroke="#000000" points="685.394,-174 679.394,-174 "/>
<text text-anchor="middle" x="627.7725" y="-157.8" font-family="Times,serif" font-size="14.00" fill="#000000">var.aws_key_pair</text>
</g>
<!-- [root] aws_instance.http_server&#45;&gt;[root] var.aws_key_pair -->
<g id="edge6" class="edge">
<title>[root] aws_instance.http_server-&gt;[root] var.aws_key_pair</title>
<path fill="none" stroke="#000000" d="M713.0055,-215.8314C698.5592,-206.7074 680.876,-195.539 665.3685,-185.7449"/>
<polygon fill="#000000" stroke="#000000" points="666.8542,-182.5436 656.5303,-180.1628 663.1162,-188.462 666.8542,-182.5436"/>
</g>
<!-- [root] provisioner.remote&#45;exec -->
<g id="node11" class="node">
<title>[root] provisioner.remote-exec</title>
<ellipse fill="none" stroke="#000000" cx="832.7725" cy="-162" rx="129.595" ry="18"/>
<text text-anchor="middle" x="832.7725" y="-157.8" font-family="Times,serif" font-size="14.00" fill="#000000">[root] provisioner.remote-exec</text>
</g>
<!-- [root] aws_instance.http_server&#45;&gt;[root] provisioner.remote&#45;exec -->
<g id="edge5" class="edge">
<title>[root] aws_instance.http_server-&gt;[root] provisioner.remote-exec</title>
<path fill="none" stroke="#000000" d="M764.7356,-215.8314C776.0296,-206.8955 789.8019,-195.9987 801.9938,-186.3524"/>
<polygon fill="#000000" stroke="#000000" points="804.4614,-188.863 810.1319,-179.9134 800.118,-183.3735 804.4614,-188.863"/>
</g>
<!-- [root] aws_security_group.http_server_sg&#45;&gt;[root] aws_default_vpc.default -->
<g id="edge7" class="edge">
<title>[root] aws_security_group.http_server_sg-&gt;[root] aws_default_vpc.default</title>
<path fill="none" stroke="#000000" d="M481.8668,-143.8314C501.2651,-134.3302 525.1895,-122.6121 545.7587,-112.5374"/>
<polygon fill="#000000" stroke="#000000" points="547.5039,-115.5799 554.9449,-108.038 544.4247,-109.2935 547.5039,-115.5799"/>
</g>
<!-- [root] data.aws_ami.aws_linux_2_latest&#45;&gt;[root] provider.aws -->
<g id="edge8" class="edge">
<title>[root] data.aws_ami.aws_linux_2_latest-&gt;[root] provider.aws</title>
<path fill="none" stroke="#000000" d="M980.4405,-74.9941C881.4247,-60.4745 734.6483,-38.9512 652.7209,-26.9374"/>
<polygon fill="#000000" stroke="#000000" points="653.2182,-23.473 642.8162,-25.485 652.2025,-30.399 653.2182,-23.473"/>
</g>
<!-- [root] data.aws_ami_ids.aws_linux_2_latest_ids -->
<g id="node5" class="node">
<title>[root] data.aws_ami_ids.aws_linux_2_latest_ids</title>
<polygon fill="none" stroke="#000000" points="624.1169,-324 373.4281,-324 373.4281,-288 624.1169,-288 624.1169,-324"/>
<text text-anchor="middle" x="498.7725" y="-301.8" font-family="Times,serif" font-size="14.00" fill="#000000">data.aws_ami_ids.aws_linux_2_latest_ids</text>
</g>
<!-- [root] data.aws_ami_ids.aws_linux_2_latest_ids&#45;&gt;[root] provider.aws -->
<g id="edge9" class="edge">
<title>[root] data.aws_ami_ids.aws_linux_2_latest_ids-&gt;[root] provider.aws</title>
<path fill="none" stroke="#000000" d="M452.1185,-287.9494C389.3219,-260.8075 289.7216,-206.01 328.7725,-144 373.2052,-73.4441 469.3139,-41.5218 532.2216,-27.7259"/>
<polygon fill="#000000" stroke="#000000" points="532.9547,-31.1484 542.0198,-25.6642 531.5134,-24.2984 532.9547,-31.1484"/>
</g>
<!-- [root] data.aws_subnet_ids.default_subnets&#45;&gt;[root] aws_default_vpc.default -->
<g id="edge10" class="edge">
<title>[root] data.aws_subnet_ids.default_subnets-&gt;[root] aws_default_vpc.default</title>
<path fill="none" stroke="#000000" d="M980.3138,-145.2513C977.4376,-144.8287 974.5866,-144.411 971.7725,-144 871.282,-129.3233 755.7601,-112.9826 678.7213,-102.1611"/>
<polygon fill="#000000" stroke="#000000" points="678.9717,-98.662 668.5822,-100.7376 677.9984,-105.594 678.9717,-98.662"/>
</g>
<!-- [root] output.aws_secuirty_group_http_server_details -->
<g id="node7" class="node">
<title>[root] output.aws_secuirty_group_http_server_details</title>
<polygon fill="none" stroke="#000000" points="275.3179,-252 .2271,-252 .2271,-216 281.3179,-216 281.3179,-246 275.3179,-252"/>
<polyline fill="none" stroke="#000000" points="275.3179,-252 275.3179,-246 "/>
<polyline fill="none" stroke="#000000" points="281.3179,-246 275.3179,-246 "/>
<text text-anchor="middle" x="140.7725" y="-229.8" font-family="Times,serif" font-size="14.00" fill="#000000">output.aws_secuirty_group_http_server_details</text>
</g>
<!-- [root] output.aws_secuirty_group_http_server_details&#45;&gt;[root] aws_security_group.http_server_sg -->
<g id="edge14" class="edge">
<title>[root] output.aws_secuirty_group_http_server_details-&gt;[root] aws_security_group.http_server_sg</title>
<path fill="none" stroke="#000000" d="M217.0921,-215.9243C260.178,-205.7198 314.1559,-192.9355 358.7395,-182.3762"/>
<polygon fill="#000000" stroke="#000000" points="359.761,-185.7312 368.6852,-180.0207 358.1477,-178.9196 359.761,-185.7312"/>
</g>
<!-- [root] output.aws_server_public_dns -->
<g id="node8" class="node">
<title>[root] output.aws_server_public_dns</title>
<polygon fill="none" stroke="#000000" points="348.9552,-324 168.5898,-324 168.5898,-288 354.9552,-288 354.9552,-318 348.9552,-324"/>
<polyline fill="none" stroke="#000000" points="348.9552,-324 348.9552,-318 "/>
<polyline fill="none" stroke="#000000" points="354.9552,-318 348.9552,-318 "/>
<text text-anchor="middle" x="261.7725" y="-301.8" font-family="Times,serif" font-size="14.00" fill="#000000">output.aws_server_public_dns</text>
</g>
<!-- [root] output.aws_server_public_dns&#45;&gt;[root] aws_instance.http_server -->
<g id="edge15" class="edge">
<title>[root] output.aws_server_public_dns-&gt;[root] aws_instance.http_server</title>
<path fill="none" stroke="#000000" d="M355.225,-289.5394C358.4454,-289.0134 361.6351,-288.4987 364.7725,-288 463.2001,-272.3541 576.4194,-256.4119 652.8885,-245.9464"/>
<polygon fill="#000000" stroke="#000000" points="653.5273,-249.3918 662.9615,-244.5704 652.5798,-242.4562 653.5273,-249.3918"/>
</g>
<!-- [root] meta.count&#45;boundary (EachMode fixup) -->
<g id="node12" class="node">
<title>[root] meta.count-boundary (EachMode fixup)</title>
<ellipse fill="none" stroke="#000000" cx="294.7725" cy="-378" rx="191.4666" ry="18"/>
<text text-anchor="middle" x="294.7725" y="-373.8" font-family="Times,serif" font-size="14.00" fill="#000000">[root] meta.count-boundary (EachMode fixup)</text>
</g>
<!-- [root] meta.count&#45;boundary (EachMode fixup)&#45;&gt;[root] data.aws_ami_ids.aws_linux_2_latest_ids -->
<g id="edge11" class="edge">
<title>[root] meta.count-boundary (EachMode fixup)-&gt;[root] data.aws_ami_ids.aws_linux_2_latest_ids</title>
<path fill="none" stroke="#000000" d="M344.1552,-360.5708C372.4585,-350.5814 408.205,-337.965 438.1958,-327.38"/>
<polygon fill="#000000" stroke="#000000" points="439.4491,-330.6493 447.7142,-324.0206 437.1194,-324.0484 439.4491,-330.6493"/>
</g>
<!-- [root] meta.count&#45;boundary (EachMode fixup)&#45;&gt;[root] output.aws_secuirty_group_http_server_details -->
<g id="edge12" class="edge">
<title>[root] meta.count-boundary (EachMode fixup)-&gt;[root] output.aws_secuirty_group_http_server_details</title>
<path fill="none" stroke="#000000" d="M217.2446,-361.5302C195.8881,-353.487 174.5564,-341.5815 159.7725,-324 145.3774,-306.8808 141.0465,-281.5535 140.0762,-262.1242"/>
<polygon fill="#000000" stroke="#000000" points="143.573,-261.9421 139.8403,-252.0265 136.5749,-262.1056 143.573,-261.9421"/>
</g>
<!-- [root] meta.count&#45;boundary (EachMode fixup)&#45;&gt;[root] output.aws_server_public_dns -->
<g id="edge13" class="edge">
<title>[root] meta.count-boundary (EachMode fixup)-&gt;[root] output.aws_server_public_dns</title>
<path fill="none" stroke="#000000" d="M286.4452,-359.8314C282.7995,-351.8771 278.4416,-342.369 274.4098,-333.5723"/>
<polygon fill="#000000" stroke="#000000" points="277.5602,-332.0456 270.2119,-324.4133 271.1968,-334.9622 277.5602,-332.0456"/>
</g>
<!-- [root] provider.aws (close) -->
<g id="node13" class="node">
<title>[root] provider.aws (close)</title>
<ellipse fill="none" stroke="#000000" cx="634.7725" cy="-378" rx="114.0255" ry="18"/>
<text text-anchor="middle" x="634.7725" y="-373.8" font-family="Times,serif" font-size="14.00" fill="#000000">[root] provider.aws (close)</text>
</g>
<!-- [root] provider.aws (close)&#45;&gt;[root] aws_instance.http_server -->
<g id="edge16" class="edge">
<title>[root] provider.aws (close)-&gt;[root] aws_instance.http_server</title>
<path fill="none" stroke="#000000" d="M638.903,-359.9931C643.9847,-340.7213 654.0582,-309.9621 670.7725,-288 679.4516,-276.596 691.1335,-266.3805 702.5132,-257.9845"/>
<polygon fill="#000000" stroke="#000000" points="704.5509,-260.8303 710.6987,-252.2015 700.5118,-255.1131 704.5509,-260.8303"/>
</g>
<!-- [root] provider.aws (close)&#45;&gt;[root] data.aws_ami_ids.aws_linux_2_latest_ids -->
<g id="edge17" class="edge">
<title>[root] provider.aws (close)-&gt;[root] data.aws_ami_ids.aws_linux_2_latest_ids</title>
<path fill="none" stroke="#000000" d="M601.8507,-360.5708C583.7987,-351.0139 561.2048,-339.0524 541.7744,-328.7657"/>
<polygon fill="#000000" stroke="#000000" points="543.2869,-325.6063 532.8114,-324.0206 540.0117,-331.7928 543.2869,-325.6063"/>
</g>
<!-- [root] provisioner.remote&#45;exec (close) -->
<g id="node14" class="node">
<title>[root] provisioner.remote-exec (close)</title>
<ellipse fill="none" stroke="#000000" cx="837.7725" cy="-306" rx="158.4653" ry="18"/>
<text text-anchor="middle" x="837.7725" y="-301.8" font-family="Times,serif" font-size="14.00" fill="#000000">[root] provisioner.remote-exec (close)</text>
</g>
<!-- [root] provisioner.remote&#45;exec (close)&#45;&gt;[root] aws_instance.http_server -->
<g id="edge18" class="edge">
<title>[root] provisioner.remote-exec (close)-&gt;[root] aws_instance.http_server</title>
<path fill="none" stroke="#000000" d="M814.0422,-288.2022C802.0177,-279.1839 787.2358,-268.0975 774.1803,-258.3059"/>
<polygon fill="#000000" stroke="#000000" points="775.9967,-255.2932 765.8967,-252.0931 771.7967,-260.8932 775.9967,-255.2932"/>
</g>
<!-- [root] root -->
<g id="node15" class="node">
<title>[root] root</title>
<ellipse fill="none" stroke="#000000" cx="634.7725" cy="-450" rx="50.9823" ry="18"/>
<text text-anchor="middle" x="634.7725" y="-445.8" font-family="Times,serif" font-size="14.00" fill="#000000">[root] root</text>
</g>
<!-- [root] root&#45;&gt;[root] meta.count&#45;boundary (EachMode fixup) -->
<g id="edge19" class="edge">
<title>[root] root-&gt;[root] meta.count-boundary (EachMode fixup)</title>
<path fill="none" stroke="#000000" d="M591.0195,-440.7347C538.6468,-429.644 449.651,-410.7978 382.8425,-396.6501"/>
<polygon fill="#000000" stroke="#000000" points="383.2452,-393.1579 372.737,-394.5101 381.795,-400.006 383.2452,-393.1579"/>
</g>
<!-- [root] root&#45;&gt;[root] provider.aws (close) -->
<g id="edge20" class="edge">
<title>[root] root-&gt;[root] provider.aws (close)</title>
<path fill="none" stroke="#000000" d="M634.7725,-431.8314C634.7725,-424.131 634.7725,-414.9743 634.7725,-406.4166"/>
<polygon fill="#000000" stroke="#000000" points="638.2726,-406.4132 634.7725,-396.4133 631.2726,-406.4133 638.2726,-406.4132"/>
</g>
<!-- [root] root&#45;&gt;[root] provisioner.remote&#45;exec (close) -->
<g id="edge21" class="edge">
<title>[root] root-&gt;[root] provisioner.remote-exec (close)</title>
<path fill="none" stroke="#000000" d="M673.0482,-438.027C698.5258,-428.9392 731.9354,-414.7956 757.7725,-396 782.2182,-378.2167 804.572,-351.8082 819.3976,-332.1922"/>
<polygon fill="#000000" stroke="#000000" points="822.3381,-334.1023 825.4672,-323.98 816.7088,-329.9416 822.3381,-334.1023"/>
</g>
</g>
</svg>